<?xml version="1.0" encoding="utf-8"?>
<!-- Generator: Adobe Illustrator 16.0.0, SVG Export Plug-In . SVG Version: 6.00 Build 0)  -->
<!DOCTYPE svg PUBLIC "-//W3C//DTD SVG 1.1//EN" "http://www.w3.org/Graphics/SVG/1.1/DTD/svg11.dtd">
<svg version="1.1" id="Layer_1" xmlns="http://www.w3.org/2000/svg" xmlns:xlink="http://www.w3.org/1999/xlink" x="0px" y="0px"
	 width="1182.379px" height="300px" viewBox="-884.5 0 1182.379 300" enable-background="new -884.5 0 1182.379 300"
	 xml:space="preserve">
<radialGradient id="SVGID_1_" cx="339.8877" cy="-162.021" r="264.5807" gradientTransform="matrix(1 0 0 -1 -282.5 -105)" gradientUnits="userSpaceOnUse">
	<stop  offset="0" style="stop-color:#9DD5F6"/>
	<stop  offset="0.0711" style="stop-color:#98D3F5"/>
	<stop  offset="0.1575" style="stop-color:#89CEF3"/>
	<stop  offset="0.2516" style="stop-color:#70C6EF"/>
	<stop  offset="0.3514" style="stop-color:#4EBBEA"/>
	<stop  offset="0.4546" style="stop-color:#23ADE3"/>
	<stop  offset="0.5" style="stop-color:#0DA6E0"/>
	<stop  offset="1" style="stop-color:#2E77BC"/>
</radialGradient>
<path fill="url(#SVGID_1_)" d="M289.584,7.598H7.639v282.966h281.945v-93.387c1.12-1.619,1.673-3.689,1.673-6.222
	c0-2.897-0.553-4.692-1.673-6.205"/>
<path fill="#FFFFFF" d="M33.053,130.042l-5.424-13.217l-5.393,13.217 M152.543,124.779c-1.089,0.661-2.377,0.683-3.92,0.683h-9.627
	v-7.364h9.758c1.381,0,2.822,0.062,3.758,0.598c1.028,0.483,1.664,1.511,1.664,2.931
	C154.176,123.076,153.57,124.242,152.543,124.779z M221.221,130.042l-5.484-13.217l-5.453,13.217H221.221z M93.201,144.348h-8.124
	l-0.03-25.966l-11.491,25.966h-6.958l-11.521-25.989v25.989H38.959l-3.045-7.395h-16.5l-3.076,7.395H7.731l14.191-33.154h11.774
	l13.478,31.39v-31.39h12.934l10.371,22.491l9.527-22.491H93.2L93.201,144.348L93.201,144.348z M125.58,144.348H99.107v-33.154
	h26.473v6.904h-18.548v5.976h18.103v6.796h-18.103v6.621h18.548V144.348z M162.906,120.123c0,5.286-3.528,8.017-5.584,8.837
	c1.734,0.66,3.215,1.826,3.92,2.792c1.119,1.649,1.312,3.122,1.312,6.083v6.513h-7.994l-0.029-4.181
	c0-1.995,0.191-4.864-1.252-6.459c-1.157-1.166-2.922-1.419-5.775-1.419h-8.507v12.059h-7.924v-33.154H149.3
	c4.05,0,7.034,0.107,9.597,1.588C161.402,114.263,162.906,116.425,162.906,120.123z M175.588,144.348h-8.086v-33.154h8.086V144.348z
	 M269.396,144.348h-11.23l-15.021-24.884v24.884h-16.139l-3.084-7.395H207.46l-2.992,7.395h-9.272
	c-3.853,0-8.729-0.852-11.491-3.667c-2.785-2.815-4.233-6.628-4.233-12.657c0-4.917,0.865-9.412,4.271-12.964
	c2.562-2.646,6.574-3.866,12.035-3.866h7.672v7.104h-7.512c-2.892,0-4.524,0.43-6.098,1.964c-1.351,1.396-2.277,4.035-2.277,7.51
	c0,3.552,0.705,6.113,2.179,7.786c1.22,1.312,3.437,1.71,5.522,1.71h3.56l11.169-26.073h11.874l13.417,31.359v-31.359h12.066
	l13.93,23.09v-23.09h8.117V144.348L269.396,144.348z M7.639,150.859h13.54l3.053-7.363h6.835l3.045,7.363h26.641v-5.629l2.378,5.654
	h13.83l2.378-5.738v5.713h66.208l-0.031-12.087h1.281c0.897,0.031,1.159,0.114,1.159,1.595v10.492h34.243v-2.813
	c2.762,1.48,7.058,2.813,12.711,2.813h14.406l3.082-7.363h6.836l3.015,7.363h27.761v-6.994l4.204,6.994h22.246V104.62h-22.017v5.461
	l-3.082-5.461H228.77v5.461l-2.83-5.461h-30.516c-5.107,0-9.598,0.713-13.225,2.7v-2.7h-21.059v2.7
	c-2.308-2.048-5.453-2.7-8.949-2.7H75.258l-5.162,11.943l-5.301-11.943H40.563v5.461l-2.662-5.461H17.235l-9.597,21.985
	L7.639,150.859L7.639,150.859z"/>
<path fill="#FFFFFF" d="M289.584,175.314h-14.443c-1.441,0-2.399,0.055-3.207,0.6c-0.836,0.537-1.158,1.334-1.158,2.386
	c0,1.251,0.707,2.103,1.733,2.47c0.837,0.291,1.734,0.377,3.054,0.377l4.295,0.115c4.334,0.106,7.228,0.852,8.992,2.668
	c0.32,0.254,0.514,0.537,0.734,0.821 M289.584,197.178c-1.925,2.815-5.676,4.242-10.754,4.242h-15.305v-7.111h15.242
	c1.513,0,2.57-0.199,3.207-0.82c0.553-0.514,0.938-1.258,0.938-2.163c0-0.966-0.385-1.733-0.969-2.193
	c-0.574-0.506-1.411-0.735-2.791-0.735c-7.441-0.254-16.725,0.229-16.725-10.265c0-4.81,3.055-9.873,11.37-9.873h15.785v-6.598
	h-14.666c-4.426,0-7.642,1.06-9.918,2.708v-2.708h-21.692c-3.47,0-7.541,0.86-9.468,2.708v-2.708h-38.737v2.708
	c-3.084-2.225-8.285-2.708-10.687-2.708h-25.552v2.708c-2.439-2.362-7.863-2.708-11.169-2.708h-28.597l-6.544,7.082l-6.129-7.082
	H63.706v46.272h41.914l6.743-7.194l6.352,7.194l25.836,0.022V197.07h2.54c3.429,0.054,7.472-0.084,11.038-1.627v12.488h21.311
	v-12.06h1.027c1.312,0,1.441,0.054,1.441,1.364v10.695h64.736c4.109,0,8.405-1.053,10.785-2.961v2.961h20.533
	c4.273,0,8.446-0.6,11.621-2.134V197.178L289.584,197.178z M257.973,183.93c1.543,1.598,2.37,3.613,2.37,7.026
	c0,7.134-4.457,10.464-12.448,10.464h-15.436v-7.111h15.373c1.503,0,2.568-0.199,3.236-0.82c0.545-0.514,0.937-1.258,0.937-2.163
	c0-0.966-0.423-1.733-0.967-2.193c-0.606-0.506-1.442-0.735-2.822-0.735c-7.411-0.254-16.692,0.229-16.692-10.265
	c0-4.81,3.022-9.873,11.33-9.873h15.888v7.058h-14.537c-1.44,0-2.378,0.055-3.175,0.6c-0.868,0.537-1.19,1.334-1.19,2.386
	c0,1.251,0.737,2.103,1.733,2.47c0.837,0.291,1.734,0.377,3.085,0.377l4.266,0.115C253.225,181.368,256.178,182.111,257.973,183.93z
	 M186.465,181.882c-1.061,0.63-2.371,0.683-3.913,0.683h-9.627v-7.447h9.759c1.41,0,2.822,0.029,3.781,0.599
	c1.027,0.537,1.641,1.563,1.641,2.983C188.105,180.118,187.492,181.262,186.465,181.882z M191.251,186.009
	c1.765,0.651,3.206,1.818,3.882,2.784c1.119,1.619,1.281,3.13,1.312,6.053v6.574h-7.955v-4.148c0-1.996,0.191-4.949-1.281-6.492
	c-1.158-1.188-2.923-1.471-5.814-1.471h-8.469v12.111h-7.963v-33.162h18.296c4.013,0,6.935,0.178,9.535,1.565
	c2.501,1.511,4.074,3.581,4.074,7.364C196.867,182.48,193.337,185.182,191.251,186.009z M201.262,168.258h26.449v6.858h-18.557
	v6.028h18.104v6.767h-18.104v6.598l18.557,0.03v6.881h-26.449V168.258z M147.795,183.562h-10.241v-8.445h10.333
	c2.861,0,4.847,1.166,4.847,4.066C152.734,182.051,150.84,183.562,147.795,183.562z M129.661,198.404l-12.167-13.508l12.167-13.08
	V198.404z M98.24,194.509H78.756v-6.598h17.398v-6.767H78.756v-6.028h19.868l8.668,9.663L98.24,194.509z M161.242,179.184
	c0,9.211-6.873,11.113-13.8,11.113h-9.888v11.123h-15.403l-9.758-10.979l-10.141,10.979h-31.39v-33.162h31.873l9.75,10.87
	l10.08-10.87h25.322C154.176,168.258,161.242,169.999,161.242,179.184z"/>
<g id="layer1">
	<g id="g10305">
		<path id="path2268" fill="#FF9900" d="M-70.666,150.885c0.014,48.936-39.646,88.613-88.582,88.627
			c-48.937,0.012-88.614-39.646-88.627-88.582c0-0.016,0-0.029,0-0.045c-0.013-48.936,39.647-88.616,88.581-88.628
			c48.937-0.013,88.614,39.647,88.628,88.583C-70.666,150.854-70.666,150.868-70.666,150.885z"/>
		<path id="path1350" fill="#CC0000" d="M-278.697,62.279c-48.646,0.309-88.034,39.886-88.034,88.605
			c0,48.908,39.695,88.604,88.605,88.604c22.955,0,43.879-8.748,59.624-23.086c-0.001,0-0.003-0.002-0.007-0.004h0.019
			c3.224-2.938,6.231-6.107,8.995-9.488h-18.153c-2.424-2.928-4.627-5.979-6.606-9.127h31.308c1.904-3.047,3.628-6.211,5.158-9.488
			h-41.635c-1.419-3.041-2.651-6.152-3.703-9.309h49.045c2.956-8.832,4.56-18.281,4.56-28.104c0-6.512-0.706-12.86-2.042-18.974
			h-54.164c0.671-3.146,1.518-6.254,2.528-9.308h49.063c-1.098-3.25-2.371-6.417-3.82-9.487h-41.472
			c1.496-3.196,3.191-6.305,5.084-9.307h31.285c-2.082-3.317-4.386-6.486-6.877-9.488h-17.443c2.697-3.174,5.666-6.163,8.889-8.95
			c-15.746-14.34-36.676-23.09-59.636-23.09C-278.317,62.279-278.506,62.278-278.697,62.279z"/>
		<path id="use9412" fill="#FCB340" d="M-79.555,197.205c0.482,0,0.951,0.125,1.409,0.371c0.46,0.246,0.814,0.6,1.07,1.061
			c0.256,0.457,0.384,0.938,0.384,1.436c0,0.492-0.127,0.969-0.379,1.424c-0.251,0.455-0.605,0.811-1.061,1.062
			c-0.451,0.25-0.928,0.375-1.424,0.375s-0.973-0.125-1.427-0.375c-0.454-0.254-0.807-0.605-1.063-1.062
			c-0.252-0.455-0.377-0.932-0.377-1.424c0-0.498,0.127-0.979,0.385-1.436c0.258-0.461,0.613-0.812,1.07-1.061
			C-80.504,197.33-80.036,197.205-79.555,197.205 M-79.555,197.68c-0.4,0-0.793,0.104-1.176,0.311
			c-0.38,0.207-0.677,0.5-0.891,0.889c-0.217,0.381-0.325,0.777-0.325,1.193c0,0.412,0.106,0.811,0.315,1.188
			c0.213,0.377,0.51,0.674,0.888,0.885c0.381,0.213,0.776,0.316,1.188,0.316c0.414,0,0.81-0.104,1.188-0.316
			c0.378-0.211,0.673-0.508,0.884-0.885c0.209-0.377,0.312-0.773,0.312-1.188c0-0.416-0.105-0.812-0.32-1.193
			c-0.213-0.389-0.512-0.682-0.895-0.889C-78.764,197.783-79.154,197.68-79.555,197.68 M-80.811,201.654v-3.082h1.062
			c0.359,0,0.621,0.027,0.783,0.088c0.162,0.057,0.291,0.154,0.389,0.297c0.095,0.141,0.145,0.291,0.145,0.451
			c0,0.227-0.08,0.422-0.242,0.588c-0.158,0.166-0.373,0.262-0.64,0.281c0.109,0.045,0.196,0.102,0.265,0.164
			c0.125,0.119,0.274,0.322,0.455,0.609l0.375,0.604h-0.606l-0.272-0.484c-0.215-0.383-0.388-0.621-0.521-0.719
			c-0.091-0.068-0.224-0.105-0.397-0.105h-0.293v1.312h-0.5 M-80.313,199.92h0.604c0.288,0,0.483-0.045,0.588-0.129
			c0.106-0.088,0.159-0.201,0.159-0.342c0-0.092-0.024-0.174-0.075-0.244c-0.052-0.074-0.122-0.125-0.213-0.162
			c-0.089-0.035-0.255-0.055-0.497-0.055h-0.564v0.932"/>
	</g>
	<g id="g16480">
		<g id="g13802" transform="translate(-13.74405,15.9939)">
			<path id="path13804" fill="#000066" d="M-234.979,160.311l1.18-8.02c-0.645,0-1.593,0.277-2.431,0.277
				c-3.284,0-3.694-1.754-3.436-3.035l3.236-16.131h4.992l1.029-9.103h-4.705l0.958-5.516h-9.842
				c-0.208,0.208-5.568,31.021-5.568,34.775c0,5.557,3.118,8.027,7.516,7.988C-238.608,161.518-235.925,160.565-234.979,160.311z"/>
			<path id="path13806" fill="#000066" d="M-231.992,145.022c0,13.332,8.799,16.5,16.297,16.5c6.921,0,10.55-1.604,10.55-1.604
				l1.662-9.102c0,0-5.848,2.379-10.601,2.379c-10.131,0-8.355-7.555-8.355-7.555l19.463,0.061c0,0,1.238-6.111,1.238-8.604
				c0-6.217-3.387-13.849-13.745-13.849C-224.968,123.251-231.992,133.472-231.992,145.022z M-215.446,131.697
				c5.324,0,4.342,5.985,4.342,6.469h-10.474C-221.578,137.547-220.589,131.697-215.446,131.697z"/>
			<path id="path13808" fill="#000066" d="M-155.708,160.307l1.689-10.283c0,0-4.633,2.32-7.808,2.32
				c-6.692,0-9.378-5.109-9.378-10.6c0-11.138,5.758-17.266,12.168-17.266c4.809,0,8.665,2.699,8.665,2.699l1.54-9.993
				c0,0-4.555-3.289-9.456-3.308c-14.745-0.058-23.183,10.208-23.183,27.956c0,11.762,6.248,19.768,17.506,19.768
				C-160.78,161.6-155.708,160.307-155.708,160.307z"/>
			<path id="path13810" fill="#000066" d="M-286.868,123.396c-6.469,0-11.427,2.079-11.427,2.079l-1.37,8.127
				c0,0,4.093-1.663,10.281-1.663c3.513,0,6.083,0.395,6.083,3.25c0,1.734-0.314,2.373-0.314,2.373s-2.772-0.23-4.056-0.23
				c-9.21,0-16.729,3.482-16.729,13.98c0,8.273,5.623,10.17,9.108,10.17c6.657,0,9.292-4.203,9.444-4.215l-0.077,3.488
				c0,0,8.306,0,8.307,0l3.706-25.98C-273.912,123.75-283.528,123.396-286.868,123.396z M-285.43,144.492
				c0.181,1.586-0.41,9.086-6.092,9.086c-2.93,0-3.691-2.24-3.691-3.562c0-2.584,1.403-5.682,8.315-5.682
				C-285.288,144.334-285.701,144.449-285.43,144.492z"/>
			<path id="path13812" fill="#000066" d="M-265.083,161.291c2.125,0,14.272,0.541,14.272-11.994
				c0-11.721-11.244-9.404-11.244-14.115c0-2.342,1.833-3.08,5.184-3.08c1.329,0,6.447,0.423,6.447,0.423l1.189-8.33
				c0,0.001-3.312-0.741-8.704-0.741c-6.979,0-14.063,2.786-14.063,12.317c0,10.803,11.812,9.717,11.812,14.268
				c0,3.037-3.3,3.287-5.844,3.287c-4.401,0-8.363-1.512-8.377-1.438l-1.259,8.244
				C-275.441,160.203-272.996,161.291-265.083,161.291z"/>
			<path id="path13814" fill="#000066" d="M-77.891,115.839l-1.705,12.709c0,0-3.553-4.905-9.111-4.905
				c-10.459,0-15.85,10.423-15.85,22.396c0,7.73,3.845,15.307,11.699,15.307c5.651,0,8.784-3.941,8.784-3.941l-0.415,3.365h9.178
				l7.207-44.861L-77.891,115.839z M-81.943,140.541c0,4.982-2.468,11.639-7.581,11.639c-3.396,0-4.988-2.85-4.988-7.324
				c0-7.314,3.285-12.14,7.433-12.14C-83.686,132.716-81.943,135.047-81.943,140.541z"/>
			<path id="path13816" fill="#000066" d="M-337.949,160.807l5.743-33.87l0.844,33.87h6.499l12.125-33.87l-5.371,33.87h9.658
				l7.437-44.921l-15.342-0.117l-9.126,27.503l-0.25-27.386h-14.06l-7.544,44.921H-337.949L-337.949,160.807z"/>
			<path id="path13818" fill="#000066" d="M-192.596,160.871c2.746-15.615,3.724-27.947,11.731-25.393
				c1.149-6.044,3.892-11.3,5.144-13.858c0,0-0.396-0.589-2.871-0.589c-4.226,0-9.866,8.574-9.866,8.574l0.843-5.301h-8.786
				l-5.884,36.567H-192.596L-192.596,160.871z"/>
			<g id="use14699" transform="translate(845.3001,0)">
				<path id="path13810_1_" fill="#000066" d="M-981.248,123.396c-6.472,0-11.43,2.079-11.43,2.079l-1.369,8.127
					c0,0,4.095-1.663,10.28-1.663c3.514,0,6.083,0.395,6.083,3.25c0,1.734-0.313,2.373-0.313,2.373s-2.771-0.23-4.055-0.23
					c-9.211,0-16.729,3.482-16.729,13.98c0,8.273,5.623,10.17,9.107,10.17c6.655,0,9.292-4.203,9.443-4.215l-0.078,3.488H-972
					l3.705-25.98C-968.294,123.75-977.91,123.396-981.248,123.396z M-979.812,144.492c0.181,1.586-0.41,9.086-6.092,9.086
					c-2.932,0-3.691-2.24-3.691-3.562c0-2.584,1.402-5.682,8.314-5.682C-979.67,144.334-980.082,144.449-979.812,144.492z"/>
			</g>
			<path id="use14701" fill="#000066" d="M-113.432,160.871c1.508-11.488,4.299-27.616,11.731-25.393
				c1.149-6.044,0.041-6.028-2.433-6.028c-4.229,0-5.164,0.154-5.164,0.154l0.844-5.301h-8.785l-5.884,36.568H-113.432
				L-113.432,160.871z"/>
		</g>
		<g id="g10289">
			<path id="path4157" fill="#FFFFFF" d="M-246.264,173.443l1.181-8.02c-0.645,0-1.594,0.277-2.431,0.277
				c-3.284,0-3.646-1.746-3.437-3.037l2.653-16.363h4.991l1.205-8.87h-4.706l0.958-5.516h-9.434
				c-0.208,0.208-5.569,31.024-5.569,34.776c0,5.555,3.119,8.027,7.517,7.988C-249.892,174.65-247.21,173.697-246.264,173.443z"/>
			<path id="path4155" fill="#FFFFFF" d="M-243.275,158.154c0,13.332,8.8,16.5,16.297,16.5c6.92,0,9.965-1.547,9.965-1.547
				l1.662-9.1c0,0-5.265,2.32-10.019,2.32c-10.13,0-8.356-7.553-8.356-7.553h19.171c0,0,1.238-6.113,1.238-8.605
				c0-6.216-3.094-13.79-13.452-13.79C-236.253,136.382-243.275,146.603-243.275,158.154z M-226.731,144.829
				c5.324,0,4.342,5.983,4.342,6.468h-10.474C-232.863,150.678-231.873,144.829-226.731,144.829z"/>
			<path id="path4151" fill="#FFFFFF" d="M-166.991,173.439l1.688-10.285c0,0-4.629,2.32-7.806,2.32
				c-6.692,0-9.376-5.109-9.376-10.6c0-11.137,5.758-17.264,12.168-17.264c4.807,0,8.665,2.699,8.665,2.699l1.54-9.993
				c0,0-5.721-2.315-10.625-2.315c-10.891,0-21.486,9.448-21.486,27.193c0,11.766,5.721,19.537,16.979,19.537
				C-172.061,174.732-166.991,173.439-166.991,173.439z"/>
			<path id="path4149" fill="#FFFFFF" d="M-298.151,136.527c-6.469,0-11.428,2.079-11.428,2.079l-1.369,8.127
				c0,0,4.093-1.663,10.28-1.663c3.513,0,6.083,0.395,6.083,3.25c0,1.734-0.315,2.374-0.315,2.374s-2.771-0.232-4.054-0.232
				c-8.159,0-16.73,3.483-16.73,13.981c0,8.271,5.623,10.17,9.108,10.17c6.656,0,9.525-4.32,9.678-4.332l-0.311,3.604h8.307
				l3.706-25.98C-285.196,136.882-294.811,136.527-298.151,136.527z M-296.13,157.682c0.18,1.586-0.995,9.025-6.675,9.025
				c-2.93,0-3.692-2.238-3.692-3.562c0-2.58,1.403-5.682,8.316-5.682C-296.573,157.465-296.401,157.637-296.13,157.682z"/>
			<path id="path4145" fill="#FFFFFF" d="M-276.367,174.422c2.125,0,14.273,0.541,14.273-11.994
				c0-11.719-11.245-9.404-11.245-14.112c0-2.344,1.833-3.082,5.183-3.082c1.33,0,6.447,0.423,6.447,0.423l1.19-8.33
				c0,0.001-3.312-0.741-8.704-0.741c-6.979,0-14.063,2.786-14.063,12.318c0,10.802,11.812,9.718,11.812,14.267
				c0,3.037-3.3,3.285-5.843,3.285c-4.401,0-8.364-1.51-8.378-1.439l-1.258,8.246C-286.725,173.332-284.281,174.422-276.367,174.422
				z"/>
			<path id="path4139" fill="#FFFFFF" d="M-88.846,129.052l-2.035,12.627c0,0-3.551-4.905-9.109-4.905
				c-8.645,0-15.85,10.422-15.85,22.397c0,7.73,3.844,15.303,11.699,15.303c5.651,0,8.784-3.939,8.784-3.939l-0.415,3.365h9.176
				l7.207-44.863L-88.846,129.052z M-93.227,153.672c0,4.984-2.467,11.639-7.582,11.639c-3.395,0-4.986-2.85-4.986-7.322
				c0-7.314,3.285-12.14,7.431-12.14C-94.969,145.847-93.227,148.18-93.227,153.672z"/>
			<path id="path4133" fill="#FFFFFF" d="M-349.232,173.939l5.743-33.87l0.843,33.87h6.5l12.125-33.87l-5.371,33.87h9.658
				l7.438-44.923h-14.935l-9.301,27.564l-0.484-27.564h-13.767l-7.545,44.923H-349.232z"/>
			<path id="path4131" fill="#FFFFFF" d="M-203.879,174.002c2.746-15.617,3.255-28.297,9.808-25.976
				c1.147-6.044,2.254-8.382,3.506-10.94c0,0-0.587-0.123-1.819-0.123c-4.225,0-7.354,5.772-7.354,5.772l0.841-5.301h-8.783
				l-5.886,36.568H-203.879z"/>
			<g id="use8523" transform="translate(847.0062,0)">
				<path id="path4149_1_" fill="#FFFFFF" d="M-992.229,136.527c-6.469,0-11.428,2.079-11.428,2.079l-1.367,8.127
					c0,0,4.093-1.663,10.279-1.663c3.514,0,6.081,0.395,6.081,3.25c0,1.734-0.312,2.374-0.312,2.374s-2.771-0.232-4.056-0.232
					c-8.158,0-16.729,3.483-16.729,13.981c0,8.271,5.622,10.17,9.107,10.17c6.655,0,9.524-4.32,9.677-4.332l-0.31,3.604
					c0,0,8.305,0,8.307,0l3.705-25.98C-979.272,136.882-988.889,136.527-992.229,136.527z M-990.205,157.682
					c0.181,1.586-0.995,9.025-6.678,9.025c-2.931,0-3.69-2.238-3.69-3.562c0-2.58,1.403-5.682,8.315-5.682
					C-990.649,157.465-990.479,157.637-990.205,157.682z"/>
			</g>
			<g id="use8525" transform="translate(442.2857,0)">
				<path id="path4131_1_" fill="#FFFFFF" d="M-566.961,174.002c2.747-15.617,3.257-28.297,9.808-25.976
					c1.148-6.044,2.257-8.382,3.508-10.94c0,0-0.588-0.123-1.819-0.123c-4.225,0-7.354,5.772-7.354,5.772l0.841-5.301h-8.784
					l-5.885,36.568H-566.961z"/>
			</g>
			<path id="text9407" fill="#FFFFFF" d="M-79.592,168.359c0.479,0,0.951,0.123,1.406,0.373c0.459,0.242,0.815,0.598,1.071,1.059
				c0.257,0.459,0.383,0.936,0.383,1.434c0,0.494-0.126,0.971-0.379,1.426c-0.251,0.455-0.604,0.811-1.06,1.062
				c-0.453,0.25-0.93,0.375-1.424,0.375c-0.498,0-0.974-0.125-1.429-0.375c-0.454-0.254-0.806-0.607-1.058-1.062
				c-0.256-0.455-0.381-0.932-0.381-1.426c0-0.498,0.127-0.975,0.384-1.434c0.258-0.461,0.616-0.814,1.073-1.059
				C-80.543,168.482-80.072,168.359-79.592,168.359 M-79.592,168.832c-0.401,0-0.793,0.104-1.176,0.312
				c-0.383,0.203-0.68,0.498-0.895,0.885c-0.215,0.381-0.322,0.779-0.322,1.193s0.104,0.811,0.312,1.189
				c0.214,0.377,0.51,0.672,0.892,0.885c0.378,0.209,0.772,0.314,1.188,0.314c0.412,0,0.81-0.105,1.188-0.314
				c0.378-0.213,0.674-0.508,0.884-0.885c0.212-0.381,0.314-0.775,0.314-1.189s-0.107-0.812-0.321-1.193
				c-0.213-0.387-0.51-0.682-0.895-0.885C-78.801,168.936-79.191,168.832-79.592,168.832 M-80.848,172.807v-3.082h1.062
				c0.36,0,0.625,0.029,0.784,0.088c0.162,0.055,0.289,0.154,0.389,0.297c0.098,0.143,0.146,0.291,0.146,0.451
				c0,0.225-0.082,0.422-0.244,0.588c-0.158,0.166-0.371,0.262-0.637,0.279c0.105,0.047,0.193,0.102,0.262,0.164
				c0.123,0.121,0.275,0.326,0.455,0.611l0.377,0.604h-0.609l-0.271-0.484c-0.215-0.383-0.389-0.621-0.521-0.719
				c-0.091-0.07-0.224-0.105-0.399-0.105h-0.291v1.311L-80.848,172.807 M-80.35,171.072h0.604c0.289,0,0.483-0.043,0.588-0.129
				c0.104-0.084,0.16-0.199,0.16-0.342c0-0.092-0.025-0.174-0.075-0.242c-0.051-0.074-0.122-0.127-0.213-0.164
				c-0.092-0.035-0.254-0.053-0.498-0.053h-0.564v0.93"/>
		</g>
	</g>
</g>
<g id="g10" transform="matrix(1.25,0,0,-1.25,-74.19125,149.0417)">
	<g id="g4163" transform="matrix(0.6384875,0,0,0.6384875,24.348951,24.07854)">
		<g id="g12" transform="translate(143.448,67.609)">
			<path id="path14" fill="#2B3894" d="M-992.288-187.517l26.471,163.867h42.312l-26.469-163.867H-992.288"/>
		</g>
		<g id="g16" transform="translate(224.353,133.66)">
			<path id="path18" fill="#2B3894" d="M-877.404-93.722c-8.365,3.287-21.521,6.876-37.913,6.876
				c-41.832,0-71.279-22.238-71.523-54.082c-0.267-23.552,21.012-36.687,37.055-44.518c16.487-8.024,22.027-13.161,21.962-20.336
				c-0.114-10.974-13.162-16.001-25.326-16.001c-16.939,0-25.938,2.475-39.854,8.593l-5.444,2.609l-5.915-36.683
				c9.866-4.563,28.156-8.525,47.139-8.732c44.457,0,73.346,21.967,73.684,55.971c0.154,18.677-11.122,32.838-35.54,44.525
				c-14.787,7.599-23.86,12.632-23.76,20.323c0.012,6.81,7.67,14.101,24.239,14.101c13.84,0.221,23.861-2.965,31.666-6.295
				l3.799-1.875L-877.404-93.722"/>
		</g>
		<g id="g20" transform="translate(247.634,91.616)">
			<path id="path22" fill="#2B3894" d="M-844.344-153.424c3.509,9.417,16.857,45.799,16.857,45.799
				c-0.248-0.429,3.486,9.493,5.621,15.635l2.857-14.131c0,0,8.12-39.111,9.792-47.303
				C-815.805-153.424-836.08-153.424-844.344-153.424z M-792.143-47.825h-32.702c-10.139,0-17.731-2.899-22.173-13.583
				l-62.837-150.171h44.44c0,0,7.252,20.2,8.898,24.635c4.844,0,48.029-0.086,54.194-0.086c1.266-5.717,5.152-24.549,5.152-24.549
				h39.271L-792.143-47.825"/>
		</g>
		<g id="g24" transform="translate(128.78,135.265)">
			<path id="path26" fill="#2B3894" d="M-1013.116-91.445l-41.414-111.715l-4.436,22.707c-7.717,26.168-31.74,54.526-58.612,68.736
				l37.887-143.31l44.781,0.027l66.633,163.555H-1013.116"/>
		</g>
		<g id="g28" transform="translate(95.781,135.311)">
			<path id="path30" fill="#F79510" d="M-1059.975-91.378h-68.231l-0.563-3.397c53.094-13.573,88.222-46.339,102.803-85.724
				l-14.826,75.295C-1043.352-94.819-1050.785-91.743-1059.975-91.378"/>
		</g>
		<g id="g32" transform="translate(288.329,72.034)">
			<path id="path34" fill="#2B3894" d="M-786.557-181.231h2.002c1.416,0,1.706,0.826,1.706,1.492c0,1.145-0.74,1.412-1.895,1.412
				h-1.813V-181.231z M-788.285-177.056h4.127c0.965,0,3.077-0.251,3.077-2.683c0-0.642-0.193-1.552-1.573-2.14v-0.051
				c1.194-0.204,1.257-1.333,1.327-2.239c0.089-1.448,0-1.704,0.38-2.216h-1.795c-0.343,0.344-0.267,0.612-0.343,2.129
				c0,0.86-0.107,1.741-2.049,1.741h-1.422v-3.87h-1.728V-177.056z M-784.874-189.721c4.243,0,7.58,3.525,7.58,7.923
				c0,4.41-3.337,7.931-7.58,7.931c-4.244,0-7.575-3.521-7.575-7.931C-792.448-186.196-789.118-189.721-784.874-189.721z
				 M-784.874-172.449c5.234,0,9.345-4.19,9.345-9.349c0-5.151-4.11-9.34-9.345-9.34c-5.232,0-9.34,4.188-9.34,9.34
				C-794.213-176.639-790.106-172.449-784.874-172.449"/>
		</g>
	</g>
</g>
</svg>
